<?xml version="1.0" encoding="UTF-8"?>
<svg id="Layer_1" data-name="Layer 1" xmlns="http://www.w3.org/2000/svg" viewBox="0 0 1000 1000">
  <defs>
    <style>
      .cls-1 {
        fill: #081728;
      }

      .cls-2 {
        fill: #41d800;
      }
    </style>
  </defs>
  <g>
    <path class="cls-1" d="M244.04,876h-72.65l-34.77-71.24-13.87,17.04v30.44c-.16,1.6-.23,3.13-.23,4.57,0,2.42.39,5.06,1.17,7.9.66,3.04,1.95,6.81,3.86,11.3H58.94c2.58-5.11,4.02-9.91,4.33-14.4.16-4.45.23-9.25.23-14.4v-116.73c0-6.56-.16-10.56-.47-12-.31-1.44-1.68-4.96-4.1-10.54h68.61c-1.76,3.67-2.97,8.29-3.63,13.87-.78,5.62-1.17,10.65-1.17,15.1v46.3l40.27-50.87c3.2-3.98,5.52-7.96,6.97-11.94.94-2.73,1.41-5.54,1.41-8.43,0-1.09-.08-2.13-.23-3.1,0-.31-.08-.62-.23-.94h53.97c-3.86,2.85-6.75,5-8.66,6.44-6.21,4.8-10.03,8.16-11.48,10.07l-28.8,33.13,56.61,102.85c1.76,2.85,3.51,5.48,5.27,7.9,1.76,2.54,3.82,5.09,6.2,7.67Z"/>
    <path class="cls-1" d="M393.41,843.63l-5.27,32.37h-136.45c2.57-5.11,4.02-9.91,4.33-14.4.16-4.45.23-9.25.23-14.4v-116.73c0-6.56-.16-10.56-.47-12-.31-1.44-1.68-4.96-4.1-10.54h134.05l4.8,32.37c-4.8-.97-8.47-1.7-11-2.17-8.51-1.6-13.8-2.4-15.86-2.4h-48.18v39.57h41.97c2.85.16,5.07.23,6.67.23,2.89,0,5.7-.33,8.43-1,2.54-.47,6.44-1.74,11.71-3.8v36.7c-4.76-.98-8.43-1.7-11-2.16-8-1.44-13.27-2.17-15.81-2.17h-41.97v45.08h56.08c1.44.16,2.81.23,4.1.23,2.22,0,4.39-.31,6.5-.93,2.07-.51,5.81-1.8,11.24-3.86Z"/>
    <path class="cls-1" d="M622.67,876h-69.31c2.11-3.98,3.39-8.7,3.86-14.17.47-5.27.86-10.15,1.17-14.63v-103.56l-43.38,132.36h-40.74l-41.97-132.36-.47,102.15c0,9.09.39,15.24,1.17,18.44.66,3.36,2.26,7.28,4.8,11.77h-37.11c2.26-3.51,3.78-7.02,4.57-10.54.62-3.51.94-10.07.94-19.67v-111.05c0-8.47-.23-14.13-.7-16.98-.62-2.73-2.22-6.01-4.8-9.84h81.02l29.74,95.42,31.84-95.42h79.38c-2.07,4.8-3.44,9.35-4.1,13.64-.78,4.49-1.17,9.6-1.17,15.34v110.29c0,8.82.31,14.75.94,17.8.51,3.01,1.95,6.67,4.33,11Z"/>
    <path class="cls-1" d="M777.12,843.63l-5.27,32.37h-136.45c2.58-5.11,4.02-9.91,4.33-14.4.16-4.45.23-9.25.23-14.4v-116.73c0-6.56-.16-10.56-.47-12-.31-1.44-1.68-4.96-4.1-10.54h134.06l4.8,32.37c-4.8-.97-8.47-1.7-11.01-2.17-8.51-1.6-13.8-2.4-15.86-2.4h-48.18v39.57h41.97c2.85.16,5.07.23,6.67.23,2.89,0,5.7-.33,8.43-1,2.54-.47,6.44-1.74,11.71-3.8v36.7c-4.76-.98-8.43-1.7-11.01-2.16-8-1.44-13.27-2.17-15.8-2.17h-41.97v45.08h56.08c1.44.16,2.81.23,4.1.23,2.23,0,4.39-.31,6.5-.93,2.07-.51,5.81-1.8,11.24-3.86Z"/>
    <path class="cls-1" d="M941.06,742.7c-2.07-2.11-3.98-3.55-5.74-4.33-4.02-1.76-9.54-2.64-16.57-2.64h-26.63v111.46c0,7.53.16,12.74.47,15.63.35,2.85,1.72,7.24,4.1,13.17h-68.61c1.91-3.82,3.1-8.46,3.57-13.9.47-5.44.88-10.41,1.23-14.9v-111.46h-26.84c-4.95,0-8.63.31-11.05.94-2.53.82-6.2,2.83-10.99,6.03l4.8-34.77h147.23l5.03,34.77Z"/>
  </g>
  <g>
    <path class="cls-1" d="M358.41,53.84h-124.43c-43.39,0-78.57,35.18-78.57,78.57v185.46L358.41,53.84Z"/>
    <path class="cls-2" d="M780.73,591.21l63.86-83.47-119.5,44.94c-2.04.77-2.29,3.54-.43,4.67l56.07,33.87Z"/>
    <path class="cls-2" d="M613.17,487.78h0c-2.19.62-2.58,3.56-.63,4.74l37.1,22.41c.27-.44.58-.86.92-1.26.11-.13.24-.24.35-.37.25-.26.5-.52.78-.75.15-.13.32-.25.48-.37.27-.2.56-.4.86-.57.19-.11.37-.21.57-.31.32-.16.65-.3.99-.43.14-.05.25-.13.39-.17,11.18-3.7,22.36-7.4,33.54-11.1l32.94-42.65-108.3,30.84Z"/>
    <path class="cls-2" d="M668.16,519.84c-2.11.7-2.43,3.55-.53,4.7l38.47,23.23c.27-.45.59-.88.93-1.29.11-.13.24-.25.35-.38.25-.27.5-.53.78-.78.16-.14.32-.26.49-.39.27-.21.55-.41.85-.6.19-.12.38-.23.58-.34.31-.17.63-.32.96-.46.13-.06.25-.13.38-.18,10.28-3.87,20.56-7.73,30.85-11.6.82-.36,1.64-.72,2.48-1.09l37.55-48.62-114.15,37.78Z"/>
    <path class="cls-2" d="M328.78,326.67l104.21,61c22.07,12.92,50.3,7.37,65.84-12.94L744.33,53.84h-240.78c-24.47,0-47.53,11.4-62.4,30.83L184.09,420.66c-69.53,90.89-4.73,222.06,109.7,222.06h446.92l-.05-.04-411.87-316.01ZM458.14,311.14c14,0,25.35,11.35,25.35,25.35s-11.35,25.35-25.35,25.35-25.35-11.35-25.35-25.35,11.35-25.35,25.35-25.35ZM290.09,560.39c-31.91,0-57.78-25.87-57.78-57.78s25.87-57.78,57.78-57.78,57.78,25.87,57.78,57.78-25.87,57.78-57.78,57.78Z"/>
    <circle class="cls-2" cx="290.09" cy="502.61" r="25.35"/>
  </g>
  <path class="cls-1" d="M93.49,610.12c-19.08,0-34.55,15.47-34.55,34.55s15.47,34.55,34.55,34.55,34.55-15.47,34.55-34.55-15.47-34.55-34.55-34.55ZM91.08,669.33v-14.69h.6c1.66,0,3.38.42,4.4,4.19l2.65,10.05c-1.69.37-3.44.57-5.24.57-.81,0-1.61-.04-2.41-.12ZM90.66,647.1v-8.77h2.89c3.1,0,4.51,1.9,4.51,4.58,0,2.54-2.08,4.19-4.33,4.19h-3.06ZM108.28,664.5l-1.95-6.76c-1.55-5.46-3.03-6.52-5.25-7.26v-.18c3.42-.85,7.5-3.2,7.5-8.95,0-7.26-4.51-10.57-12.4-10.57h-15.64v34.97c-7.09-4.36-11.84-12.18-11.84-21.1,0-13.66,11.12-24.78,24.78-24.78s24.78,11.12,24.78,24.78c0,8.11-3.94,15.31-9.98,19.83Z"/>
  <g>
    <path class="cls-1" d="M68.48,945.4v-35.33h-9.54v-9.02h30.98v9.02h-9.5v35.33h-11.94Z"/>
    <path class="cls-1" d="M116.1,945.4v-18.04h-9.3v18.04h-11.94v-44.35h11.94v17.05h9.3v-17.05h11.94v44.35h-11.94Z"/>
    <path class="cls-1" d="M136.02,945.4v-44.35h27.18v8.78h-15.49v8.54h14.73v8.74h-14.73v9.5h16.33v8.78h-28.02Z"/>
    <path class="cls-1" d="M183.76,945.4v-44.35h14.73c9.22,0,16.25,3.51,16.25,14.69,0,8.94-5.71,14.17-14.05,14.17h-4.99v15.49h-11.94ZM197.29,921.41c3.19,0,5.51-2.24,5.51-5.79,0-4.15-2.2-6.03-5.83-6.03h-1.76v11.82h2.07Z"/>
    <path class="cls-1" d="M218.89,923.25c0-16.45,10.02-22.91,19.68-22.91s19.68,6.47,19.68,22.91-10.02,22.91-19.68,22.91-19.68-6.47-19.68-22.91ZM238.49,937.66c5.03,0,7.42-5.67,7.42-14.41s-2.4-14.45-7.42-14.45-7.46,5.83-7.46,14.45,2.4,14.41,7.42,14.41h.04Z"/>
    <path class="cls-1" d="M293.58,945.4l-4.71-34.17h-.12l-4.79,34.17h-13.89l-8.78-44.35h11.22l4.67,31.14h.12l4.67-31.14h13.81l4.83,31.14h.12l4.91-31.14h10.14l-8.1,44.35h-14.09Z"/>
    <path class="cls-1" d="M320.17,945.4v-44.35h27.18v8.78h-15.49v8.54h14.73v8.74h-14.73v9.5h16.33v8.78h-28.02Z"/>
    <path class="cls-1" d="M375.17,945.4l-3.31-12.57c-1.16-4.27-3.11-4.75-4.99-4.75h-.68v17.32h-11.94v-44.35h17.72c8.94,0,14.05,3.75,14.05,11.97,0,6.51-4.63,9.18-8.5,10.14v.2c2.51.84,4.19,2.04,5.95,8.22l3.99,13.81h-12.29ZM369.19,919.54c2.55,0,4.91-1.88,4.91-4.75,0-3.03-1.6-5.19-5.11-5.19h-3.27v9.94h3.47Z"/>
    <path class="cls-1" d="M413.22,945.4v-35.33h-9.54v-9.02h30.98v9.02h-9.5v35.33h-11.94Z"/>
    <path class="cls-1" d="M438.29,923.25c0-16.45,10.02-22.91,19.68-22.91s19.68,6.47,19.68,22.91-10.02,22.91-19.68,22.91-19.68-6.47-19.68-22.91ZM457.88,937.66c5.03,0,7.42-5.67,7.42-14.41s-2.4-14.45-7.42-14.45-7.46,5.83-7.46,14.45,2.4,14.41,7.42,14.41h.04Z"/>
    <path class="cls-1" d="M497.96,945.4v-44.35h16.77c9.42,0,13.97,3.87,13.97,10.5,0,7.1-3.87,9.74-8.3,10.82v.12c5.51.92,9.02,4.51,9.02,10.5,0,8.74-5.99,12.41-14.41,12.41h-17.05ZM511.74,918.82c2.95,0,5.55-1.16,5.55-4.91,0-3.31-2.04-4.83-4.83-4.83h-3.03v9.74h2.31ZM512.57,937.14c3.43,0,5.39-1.72,5.39-5.07s-1.76-5.27-4.91-5.27h-3.63v10.34h3.15Z"/>
    <path class="cls-1" d="M557.36,901.06h11.69v27.7c0,12.97-7.5,17.4-16.84,17.4s-16.92-4.43-16.92-17.4v-27.7h11.7v28.1c-.12,4.87,1.08,8.26,5.23,8.26s5.15-3.39,5.15-8.26v-28.1Z"/>
    <path class="cls-1" d="M576.77,945.4v-44.35h11.94v44.35h-11.94Z"/>
    <path class="cls-1" d="M596.69,945.4v-44.35h11.94v35.33h14.61v9.02h-26.54Z"/>
    <path class="cls-1" d="M628.42,945.4v-44.35h17.08c13.01,0,20.32,8.7,20.32,21.91,0,15.41-8.14,22.43-22.15,22.43h-15.25ZM642.99,936.9c6.83,0,10.26-4.91,10.26-13.49,0-11.34-5.43-13.57-11.94-13.57h-.96v27.06h2.63Z"/>
    <path class="cls-1" d="M707.34,945.4l-11.34-30.74h-.24v30.74h-10.42v-44.35h13.81l11.66,30.58h.12v-30.58h10.42v44.35h-14.01Z"/>
    <path class="cls-1" d="M754.96,945.4l-2.35-9.38h-13.01l-2.87,9.38h-11.42l14.73-44.35h13.13l14.09,44.35h-12.3ZM746.5,910.08h-.12l-4.79,17.4h8.78l-3.87-17.4Z"/>
    <path class="cls-1" d="M777.96,945.4v-35.33h-9.54v-9.02h30.98v9.02h-9.5v35.33h-11.94Z"/>
    <path class="cls-1" d="M804.34,945.4v-44.35h11.94v44.35h-11.94Z"/>
    <path class="cls-1" d="M822.95,923.25c0-16.45,10.02-22.91,19.68-22.91s19.68,6.47,19.68,22.91-10.02,22.91-19.68,22.91-19.68-6.47-19.68-22.91ZM842.55,937.66c5.03,0,7.42-5.67,7.42-14.41s-2.4-14.45-7.42-14.45-7.46,5.83-7.46,14.45,2.4,14.41,7.42,14.41h.04Z"/>
    <path class="cls-1" d="M890.73,945.4l-11.34-30.74h-.24v30.74h-10.42v-44.35h13.81l11.66,30.58h.12v-30.58h10.42v44.35h-14.01Z"/>
    <path class="cls-1" d="M912.6,934.75c1.48.84,5.79,2.68,10.06,2.68,4.51,0,6.07-2,6.07-4.79s-1.96-3.71-5.39-5.07l-2.6-1c-7.3-2.87-9.54-6.79-9.54-13.09,0-8.38,6.75-13.13,16.13-13.13,3.39,0,7.58.28,11.22,1.76l-.56,8.7c-2.08-1.08-5.67-2.23-9.14-2.23s-5.71,1.48-5.71,4.19c0,2.32,1.16,3.31,5.11,5.07l5.31,2.43c4.03,1.84,7.5,4.63,7.5,11.22,0,9.74-6.98,14.69-17.32,14.69-5.35,0-9.62-1.12-11.82-1.72l.68-9.7Z"/>
  </g>
</svg>